<?xml version="1.0" standalone="no"?>
<!DOCTYPE svg PUBLIC "-//W3C//DTD SVG 20010904//EN"
 "http://www.w3.org/TR/2001/REC-SVG-20010904/DTD/svg10.dtd">
<svg version="1.0" xmlns="http://www.w3.org/2000/svg"
 width="512.000000pt" height="512.000000pt" viewBox="0 0 512.000000 512.000000"
 preserveAspectRatio="xMidYMid meet">
<metadata>
Created by potrace 1.14, written by Peter Selinger 2001-2017
</metadata>
<g transform="translate(0.000000,512.000000) scale(0.100000,-0.100000)"
fill="#000000" stroke="none">
<path d="M2640 3984 c-332 -60 -630 -263 -795 -544 -73 -123 -62 -112 -93 -96
-90 46 -265 61 -376 31 -166 -44 -314 -168 -390 -327 -24 -51 -47 -110 -51
-131 -6 -36 -10 -40 -81 -72 -283 -129 -476 -377 -523 -670 -15 -93 -6 -278
17 -367 91 -340 363 -601 702 -672 67 -14 242 -15 1565 -13 820 1 1504 6 1520
10 336 85 572 325 645 655 69 311 -52 645 -301 838 -113 87 -274 150 -409 161
l-76 6 0 51 c-2 185 -44 350 -133 521 -116 222 -291 395 -517 510 -79 40 -179
78 -239 91 -174 35 -333 42 -465 18z m309 -149 c146 -17 330 -87 456 -173 185
-128 336 -341 393 -557 29 -107 34 -155 35 -315 l1 -146 110 -2 c219 -5 368
-64 503 -200 152 -154 222 -398 177 -617 -42 -199 -185 -382 -370 -474 -142
-70 -19 -65 -1639 -68 -1639 -3 -1535 -8 -1700 72 -201 96 -344 269 -407 494
-28 99 -30 276 -4 371 36 133 109 255 209 346 82 74 155 118 265 160 93 35 94
35 108 128 21 141 124 276 260 342 128 61 249 56 395 -16 123 -60 109 -65 167
52 74 149 125 222 223 318 172 169 384 268 614 287 39 3 71 6 72 7 3 3 76 -2
132 -9z"/>
</g>
</svg>
